<?xml version="1.0" encoding="utf-8"?>
<!-- Generator: Adobe Illustrator 16.0.0, SVG Export Plug-In . SVG Version: 6.00 Build 0)  -->
<!DOCTYPE svg PUBLIC "-//W3C//DTD SVG 1.1//EN" "http://www.w3.org/Graphics/SVG/1.1/DTD/svg11.dtd">
<svg version="1.1" id="Layer_1" xmlns="http://www.w3.org/2000/svg" xmlns:xlink="http://www.w3.org/1999/xlink" x="0px" y="0px"
	 width="1000px" height="164.328px" viewBox="0 0 1000 164.328" enable-background="new 0 0 1000 164.328" xml:space="preserve">
<path d="M44.938,121.4c1.341,2.244,2.569,4.256,3.688,6.034c1.108,1.792,2.448,3.253,4.022,4.36
	c1.566,1.115,3.355,2.012,5.367,2.682c2.011,0.671,4.583,1.002,7.713,1.002c2.682,0,5.366-0.438,8.049-1.34
	c2.682-0.89,5.133-2.23,7.377-4.023c2.234-1.777,4.023-4.021,5.363-6.703c1.345-2.682,2.016-6.041,2.016-10.063V41.586H65.729v67.07
	c0,1.34-0.568,2.35-1.676,3.013c-1.119,0.678-2.125,1.009-3.021,1.009c-1.341,0-2.46-0.331-3.353-1.009
	c-0.902-0.663-1.341-1.673-1.341-3.013v-67.07H32.864v67.07c0,1.34-0.671,2.35-2.011,3.013c-1.342,0.678-2.244,1.009-2.682,1.009
	c-1.345,0-2.584-0.331-3.691-1.009c-1.118-0.663-1.676-1.673-1.676-3.013v-67.07H0v71.762c0,4.022,0.67,7.382,2.012,10.063
	c1.344,2.682,3.123,4.806,5.367,6.372c2.236,1.573,4.695,2.915,7.377,4.022c2.682,1.122,5.367,1.672,8.049,1.672
	c3.119,0,5.805-0.331,8.049-1.002c2.232-0.67,4.248-1.566,6.037-2.682c1.778-1.107,3.238-2.568,4.357-4.36
	C42.355,125.656,43.595,123.645,44.938,121.4z M96.582,86.518h18.777v-8.044c0-1.778,0.671-3.119,2.012-4.022
	c1.341-0.896,2.449-1.341,3.355-1.341c1.341,0,2.568,0.445,3.688,1.341c1.107,0.903,1.676,2.244,1.676,4.022v6.041
	c0,1.342-0.568,2.344-1.676,3.014c-1.119,0.67-2.347,1.242-3.688,1.68c-1.344,0.444-2.918,0.783-4.696,1.01
	c-1.789,0.225-3.688,0.443-5.702,0.662c-2.012,0.24-3.92,0.572-5.698,1.01c-1.789,0.444-3.356,1.341-4.696,2.682
	c-1.341,1.34-2.459,3.253-3.352,5.701c-0.904,2.463-1.342,5.703-1.342,9.725c0,2.244,0.103,4.468,0.336,6.711
	c0.222,2.245,1.006,4.354,2.346,6.366c1.341,2.019,3.018,3.585,5.028,4.7c2.015,1.115,4.583,1.672,7.713,1.672
	c3.123,0,6.038-0.77,8.72-2.35c2.685-1.56,4.918-3.239,6.707-5.025c0,0.445,0.336,1.342,1.006,2.682
	c0.67,1.342,1.231,2.244,1.68,2.683h18.778c-0.448,0-0.784-0.438-1.005-1.341c-0.234-0.89-0.449-1.779-0.672-2.682
	c-0.232-0.896-0.447-1.905-0.673-3.021c-0.233-1.108-0.335-1.898-0.335-2.343V75.792c0-2.682-0.568-5.032-1.677-7.043
	c-1.118-2.011-2.795-3.684-5.028-5.024c-2.248-1.348-4.809-2.357-7.713-3.021c-2.918-0.677-5.702-1.009-8.384-1.009
	c-4.026,0-7.61,0.445-10.733,1.341c-3.13,0.903-5.811,2.124-8.049,3.69c-2.244,1.574-3.92,3.684-5.027,6.373
	c-1.119,2.682-1.676,6.034-1.676,10.056V86.518z M126.09,107.314c0,2.244-0.783,3.805-2.346,4.693
	c-1.574,0.903-3.018,1.341-4.361,1.341c-2.682,0-4.023-1.567-4.023-4.692c0-1.779,0.223-3.119,0.671-4.023
	c0.438-0.896,1.228-1.566,2.347-2.011c1.107-0.438,2.35-0.776,3.69-1.009c1.341-0.219,2.682-0.558,4.022-1.01V107.314z
	 M173.039,46.279h-20.793v81.155h20.793V46.279z M227.364,77.803V62.376h-22.802V50.979h-20.123v11.397h-7.377v15.426h7.377v34.875
	c0,2.689,0.438,5.145,1.342,7.375c0.896,2.251,2.35,4.143,4.361,5.702c2.012,1.581,4.357,2.794,7.043,3.69
	c2.682,0.91,5.588,1.348,8.719,1.348c2.682,0,5.363-0.438,8.048-1.348c2.682-0.896,4.919-2.109,6.704-3.69
	c1.782-1.56,3.355-3.451,4.697-5.702c1.34-2.23,2.011-4.686,2.011-7.375V92.559h-18.108v18.779c0,0.902-0.232,1.453-0.67,1.68
	c-0.448,0.232-0.904,0.331-1.342,0.331c-0.902,0-1.573-0.099-2.011-0.331c-0.448-0.227-0.671-0.777-0.671-1.68V77.803H227.364z
	 M243.461,0v164.328h133.468c5.804,0,11.171-0.776,16.097-2.357c4.919-1.56,9.055-3.57,12.41-6.026
	c3.352-2.456,6.369-5.257,9.055-8.384c2.681-3.127,4.794-6.379,6.368-9.731c1.566-3.353,2.685-6.704,3.355-10.056
	c0.671-3.359,1.005-6.373,1.005-9.062V47.62c0-5.363-0.67-10.282-2.01-14.749c-1.342-4.467-3.254-8.49-5.703-12.075
	c-2.459-3.578-5.367-6.599-8.719-9.054s-6.82-4.587-10.395-6.373c-3.588-1.785-7.155-3.126-10.734-4.029
	C384.074,0.452,380.723,0,377.6,0H243.461z M376.929,24.149c4.464,0,8.384,1.002,11.739,3.021c3.352,2.011,6.034,4.467,8.049,7.374
	c2.011,2.915,3.454,6.034,4.357,9.393c0.893,3.352,1.341,6.146,1.341,8.383v65.729c0,0.903-0.335,2.575-1.006,5.024
	c-0.671,2.463-2.124,5.031-4.357,7.72c-2.247,2.682-4.929,5.025-8.049,7.036c-3.13,2.011-7.155,3.021-12.074,3.021H268.947V24.149
	H376.929z M335.346,132.798c4.919,0,9.725-0.89,14.421-2.683c4.692-1.777,8.72-4.36,12.071-7.705
	c3.355-3.359,6.037-7.27,8.049-11.743c2.014-4.46,3.02-9.159,3.02-14.085c0-4.023-0.568-7.933-1.68-11.736
	c-1.115-3.79-2.794-7.043-5.027-9.725c4.021,1.341,7.6,2.011,10.729,2.011c3.577,0,6.595-0.558,9.054-1.679
	c2.453-1.101,4.584-2.442,6.373-4.022c1.778-1.567,3.119-3.571,4.021-6.034c0.896-2.449,1.346-5.257,1.346-8.384
	s-0.783-6.26-2.351-9.393c-1.573-3.119-3.585-5.801-6.034-8.045c-2.459-2.237-5.264-4.022-8.383-5.363
	c-3.13-1.34-6.485-2.018-10.063-2.018c-3.131,0-5.932,0.572-8.385,1.68c-2.459,1.115-4.59,2.583-6.369,4.361
	c-1.789,1.785-3.253,3.923-4.361,6.365c-1.117,2.463-1.676,5.039-1.676,7.72c0,4.023,1.108,8.045,3.353,12.068
	c-2.683-1.778-5.597-3.021-8.719-3.684c-3.13-0.677-6.267-1.009-9.39-1.009c-3.585,0-6.939,0.445-10.06,1.341
	c-3.13,0.903-6.271,2.011-9.39,3.352c2.234-3.571,3.353-7.601,3.353-12.068c0-3.119-0.444-6.041-1.341-8.722
	c-1.789-3.578-4.256-6.372-7.378-8.383c-3.13-2.011-6.94-3.021-11.4-3.021c-3.589,0-7.043,0.678-10.396,2.018
	c-3.355,1.341-6.15,3.126-8.383,5.363c-2.248,2.244-4.26,4.926-6.037,8.045c-1.789,3.133-2.682,6.486-2.682,10.063
	c0,2.682,0.557,5.265,1.676,7.713c1.107,2.462,2.568,4.467,4.357,6.034c1.781,1.58,3.913,2.921,6.373,4.022
	c2.447,1.122,5.469,1.679,9.054,1.679c1.778,0,3.577-0.226,5.366-0.67c1.779-0.438,3.789-0.896,6.037-1.341
	c-2.248,2.682-4.025,5.808-5.366,9.393c-1.341,3.586-2.012,7.607-2.012,12.068c0,4.926,1.006,9.625,3.017,14.085
	c2.012,4.474,4.799,8.384,8.385,11.743c3.577,3.345,7.6,5.928,12.07,7.705C325.053,131.908,329.982,132.798,335.346,132.798z
	 M315.227,81.833c-0.903,1.785-1.574,3.683-2.012,5.695c-0.447,2.012-0.674,4.143-0.674,6.372h-10.059
	c0.437-4.46,1.781-8.482,4.025-12.067H315.227z M306.508,112.008c-2.244-4.022-3.589-8.482-4.025-13.408h10.059
	c0,2.244,0.34,4.467,1.01,6.704c0.67,2.244,1.443,4.474,2.346,6.704H306.508z M325.957,65.728c-1.342,1.341-2.795,2.922-4.358,4.7
	c-1.577,1.786-2.794,4.023-3.69,6.704h-8.719c2.236-2.681,4.799-5.024,7.713-7.043C319.811,68.078,322.827,66.631,325.957,65.728z
	 M318.578,116.707c2.686,4.023,5.135,7.375,7.379,10.057c-6.271-1.778-11.4-5.131-15.427-10.057H318.578z M332.664,93.899h-14.756
	c0-2.229,0.335-4.46,1.006-6.704c0.67-2.236,1.23-4.021,1.676-5.363h12.074V93.899z M332.664,112.008h-10.73
	c-1.344-2.23-2.35-4.46-3.02-6.704c-0.671-2.237-1.006-4.46-1.006-6.704h14.756V112.008z M332.664,77.132h-8.719
	c1.341-2.681,2.783-4.693,4.357-6.034c1.566-1.348,3.021-2.688,4.361-4.029V77.132z M332.664,124.752
	c-1.34-0.896-2.682-2.011-4.025-3.352c-1.342-1.348-2.682-2.907-4.023-4.693h8.049V124.752z M337.357,67.069
	c1.344,1.341,2.787,2.682,4.361,4.029c1.563,1.341,3.017,3.353,4.357,6.034h-8.719V67.069z M337.357,81.833h12.074
	c0.893,1.341,1.563,3.126,2.011,5.363c0.438,2.244,0.671,4.475,0.671,6.704h-14.756V81.833z M337.357,98.6h14.756
	c0,4.926-1.342,9.386-4.022,13.408h-10.733V98.6z M337.357,116.707h8.048c-1.341,1.786-2.681,3.459-4.022,5.025
	c-1.34,1.58-2.682,2.582-4.025,3.02V116.707z M352.113,77.132c-0.903-2.681-2.124-4.918-3.688-6.704
	c-1.574-1.778-3.021-3.359-4.361-4.7c3.123,0.903,6.14,2.35,9.055,4.361c2.907,2.019,5.254,4.362,7.042,7.043H352.113z
	 M344.064,126.764c1.341-1.34,2.686-2.787,4.026-4.354s2.448-3.458,3.352-5.703h8.719c-2.681,2.683-5.261,4.8-7.713,6.366
	C349.989,124.654,347.188,125.867,344.064,126.764z M357.48,93.899c-0.449-4.46-1.342-8.482-2.682-12.067h9.389
	c0.893,1.785,1.676,3.683,2.347,5.695s1.005,4.143,1.005,6.372H357.48z M354.799,112.008c0.438-2.23,1.005-4.46,1.676-6.704
	c0.67-2.237,1.006-4.46,1.006-6.704h10.059c0,2.244-0.334,4.467-1.005,6.704c-0.671,2.244-1.677,4.474-3.017,6.704H354.799z
	 M451.376,46.279h-20.79v10.734h20.79V46.279z M451.376,62.376h-20.79v65.058h20.79V62.376z M505.03,84.514v-3.359
	c0-4.022-0.671-7.48-2.012-10.395c-1.341-2.9-3.017-5.25-5.028-7.036c-2.014-1.785-4.594-3.126-7.713-4.029
	c-3.13-0.896-6.484-1.341-10.063-1.341c-2.681,0-5.597,0.444-8.719,1.341c-3.13,0.903-5.698,2.244-7.71,4.029
	c-2.015,1.786-3.803,4.135-5.366,7.036c-1.574,2.915-2.347,6.147-2.347,9.731c0,4.468,0.772,7.946,2.347,10.388
	c1.563,2.463,3.454,4.594,5.702,6.38c2.233,1.786,4.58,3.013,7.039,3.684c2.452,0.671,4.918,1.242,7.378,1.68
	c2.452,0.444,4.464,1.115,6.037,2.011c1.567,0.904,2.347,2.244,2.347,4.023c0,2.682-0.568,4.594-1.676,5.701
	c-1.119,1.115-2.795,1.673-5.032,1.673c-0.903,0-1.676-0.332-2.346-1.002c-0.671-0.671-1.341-1.567-2.012-2.682
	c-0.671-1.115-1.005-2.351-1.005-3.69c0-1.342,0-2.682,0-4.023h-18.779v0.671c0,8.948,2.012,15.32,6.033,19.11
	c4.026,3.804,10.063,5.701,18.108,5.701c3.579,0,6.81-0.331,9.728-1.002c2.904-0.677,5.59-1.904,8.049-3.689
	c2.449-1.779,4.245-4.023,5.363-6.712c1.108-2.682,1.677-6.034,1.677-10.056c0-3.578-0.335-6.811-1.006-9.725
	c-0.671-2.908-2.347-5.258-5.028-7.043c-1.34-1.342-3.355-2.35-6.037-3.014c-2.682-0.678-5.265-1.234-7.713-1.68
	c-2.459-0.438-4.693-1.34-6.708-2.682c-2.011-1.34-3.017-3.119-3.017-5.37c0-1.778,0.438-3.239,1.341-4.354
	c0.896-1.115,2.011-1.68,3.352-1.68c1.782,0,3.123,0.339,4.026,1.002c0.893,0.678,1.443,1.581,1.676,2.682
	c0.227,1.123,0.336,2.35,0.336,3.698c0,1.341,0,2.683,0,4.022H505.03z M562.039,127.435V75.792c0-1.778-0.444-3.578-1.34-5.363
	c-0.904-1.778-2.012-3.359-3.353-4.7c-1.341-1.34-3.021-2.343-5.032-3.013c-2.011-0.67-4.135-1.009-6.372-1.009
	c-3.585,0-6.602,0.671-9.054,2.019c-2.459,1.341-4.357,3.126-5.699,5.363v-6.711h-19.452v65.058h20.123V85.178
	c0-1.342,0.671-2.442,2.011-3.345c1.342-0.903,2.449-1.341,3.354-1.341c0.895,0,1.9,0.438,3.02,1.341
	c1.107,0.903,1.676,2.003,1.676,3.345v42.257H562.039z M596.244,105.304v6.034c0,1.34-0.567,2.35-1.676,3.02
	c-1.118,0.671-2.346,1.01-3.688,1.01c-0.903,0-1.912-0.339-3.02-1.01c-1.115-0.67-1.677-1.68-1.677-3.02v-10.734h30.183v-17.43
	c0-2.683-0.448-5.371-1.341-8.053c-0.906-2.682-2.35-5.13-4.36-7.375c-2.012-2.237-4.592-4.128-7.714-5.702
	c-3.13-1.567-6.94-2.35-11.401-2.35c-4.928,0-8.951,0.783-12.074,2.35c-3.129,1.573-5.596,3.584-7.378,6.033
	c-1.785,2.463-3.017,5.596-3.687,9.393c-0.671,3.796-1.006,7.707-1.006,11.736v13.415c0,4.468,0.438,8.497,1.341,12.067
	c0.893,3.585,2.347,6.605,4.36,9.061c2.012,2.457,4.461,4.248,7.375,5.363c2.908,1.115,6.599,1.68,11.068,1.68
	c8.486,0,14.756-2.244,18.779-6.711c4.022-4.467,6.037-10.733,6.037-18.778H596.244z M595.574,89.207h-9.39v-8.716
	c0-1.348,0.438-2.575,1.341-3.698c0.896-1.101,2.016-1.672,3.355-1.672c1.342,0,2.449,0.572,3.353,1.672
	c0.896,1.123,1.341,2.35,1.341,3.698V89.207z M649.902,62.376V99.94c0,1.341-0.671,2.456-2.015,3.345
	c-1.342,0.903-2.244,1.348-2.683,1.348c-1.34,0-2.579-0.444-3.687-1.348c-1.118-0.889-1.676-2.004-1.676-3.345V62.376H620.39v42.256
	c0,2.682,0.438,5.258,1.341,7.714c0.896,2.456,2.015,4.474,3.355,6.034c1.341,1.573,2.904,2.914,4.693,4.029
	c1.781,1.114,4.026,1.672,6.707,1.672c3.123,0,5.702-0.77,7.714-2.35c2.011-1.566,3.688-3.021,5.031-4.361l0.671-0.664v16.768
	c0,1.342-0.671,2.456-2.015,3.346c-1.342,0.902-2.244,1.348-2.683,1.348c-1.34,0-2.579-0.445-3.687-1.348
	c-1.118-0.89-1.676-2.004-1.676-3.346v-6.04H621.73v7.382c0,6.703,1.781,11.51,5.367,14.417c3.577,2.915,9.611,4.354,18.107,4.354
	c3.578,0,6.93-0.438,10.06-1.342c3.123-0.889,5.805-2.229,8.049-4.021c2.237-1.779,4.026-4.023,5.367-6.705s2.011-5.589,2.011-8.722
	V62.376H649.902z M735.079,121.4c0.894,2.244,2.011,4.256,3.352,6.034c1.342,1.792,2.788,3.253,4.361,4.36
	c1.563,1.115,3.353,2.012,5.364,2.682c2.014,0.671,4.36,1.002,7.042,1.002c3.123,0,6.037-0.438,8.719-1.34
	c2.686-0.89,5.032-2.23,7.043-4.023c2.012-1.777,3.793-4.021,5.366-6.703c1.564-2.682,2.348-6.041,2.348-10.063V41.586h-23.476
	v67.07c0,1.34-0.444,2.35-1.341,3.013c-0.903,0.678-2.011,1.009-3.352,1.009c-0.903,0-1.909-0.331-3.021-1.009
	c-1.114-0.663-1.676-1.673-1.676-3.013v-67.07h-22.805v67.07c0,1.34-0.671,2.35-2.012,3.013c-1.341,0.678-2.459,1.009-3.352,1.009
	c-1.341,0-2.459-0.331-3.355-1.009c-0.903-0.663-1.341-1.673-1.341-3.013v-67.07h-23.475v71.762c0,4.022,0.775,7.382,2.35,10.063
	c1.563,2.682,3.352,4.806,5.362,6.372c2.016,1.573,4.361,2.915,7.044,4.022c2.685,1.122,5.589,1.672,8.719,1.672
	c3.123,0,5.804-0.331,8.048-1.002c2.237-0.67,4.128-1.566,5.702-2.682c1.563-1.107,3.018-2.568,4.358-4.36
	C732.397,125.656,733.738,123.645,735.079,121.4z M809.525,61.036c-4.47,0-8.28,0.571-11.403,1.679
	c-3.13,1.115-5.698,2.576-7.713,4.354c-2.012,1.792-3.585,4.029-4.693,6.711c-1.118,2.682-1.676,5.596-1.676,8.715v26.161
	c0,3.125,0.558,6.033,1.676,8.715c1.108,2.682,2.682,5.039,4.693,7.043c2.015,2.018,4.583,3.584,7.713,4.699
	c3.123,1.115,6.934,1.68,11.403,1.68c3.579,0,6.931-0.564,10.061-1.68c3.119-1.115,5.702-2.682,7.713-4.699
	c2.012-2.004,3.688-4.361,5.028-7.043c1.345-2.682,2.015-5.59,2.015-8.715V82.496c0-3.119-0.67-6.034-2.015-8.715
	c-1.341-2.682-3.017-4.918-5.028-6.711c-2.011-1.778-4.594-3.239-7.713-4.354C816.456,61.607,813.104,61.036,809.525,61.036z
	 M809.525,115.367c-1.34,0-2.458-0.227-3.354-0.678c-0.903-0.438-1.341-1.341-1.341-2.682V79.814c0-1.778,0.438-2.907,1.341-3.352
	c0.896-0.438,2.015-0.67,3.354-0.67c0.894,0,1.779,0.233,2.683,0.67c0.896,0.445,1.341,1.574,1.341,3.352v32.194
	c0,1.341-0.444,2.244-1.341,2.682C811.305,115.141,810.419,115.367,809.525,115.367z M879.277,75.792
	c0-1.778-0.113-3.578-0.335-5.363c-0.233-1.778-0.903-3.359-2.012-4.7c-1.118-1.34-2.347-2.441-3.69-3.352
	c-1.342-0.896-3.131-1.341-5.364-1.341c-3.588,0-6.149,0.571-7.712,1.679c-1.574,1.115-3.254,2.795-5.032,5.032v-5.37h-16.097
	v65.058h20.122V80.491c0-0.438,0.438-1.115,1.342-2.018c0.893,0,1.563,0.233,2.011,0.67c0.438,0.444,0.67,0.91,0.67,1.348v17.431
	h16.098V75.792z M904.763,46.279h-20.119v81.155h20.119V46.279z M938.298,46.279v20.126c-1.341-1.778-3.13-3.119-5.366-4.029
	c-2.245-0.896-4.472-1.341-6.705-1.341c-3.129,0-5.701,0.571-7.713,1.679c-2.012,1.115-3.69,2.795-5.032,5.032
	c-1.34,2.244-2.243,4.693-2.682,7.375c-0.447,2.682-0.67,5.596-0.67,8.715v23.479c0,3.127,0.335,5.936,1.005,8.384
	c0.672,2.463,1.677,4.693,3.019,6.712c1.34,2.004,3.02,3.684,5.03,5.024c2.012,1.341,4.357,2.011,7.043,2.011
	c2.233,0,4.358-0.557,6.369-1.672c2.015-1.115,3.69-3.021,5.032-5.703v5.364h18.778V46.279H938.298z M933.604,77.132
	c0.893,0,1.899,0.452,3.017,1.341c1.108,0.903,1.677,2.244,1.677,4.022v26.161c0,0.902-0.448,1.785-1.341,2.682
	c-0.903,0.902-2.011,1.34-3.353,1.34c-1.345,0-2.459-0.438-3.355-1.34c-0.903-0.896-1.341-1.779-1.341-2.682V82.496
	c0-1.778,0.438-3.119,1.341-4.022C931.146,77.584,932.26,77.132,933.604,77.132z M965.124,111.338c0,2.688,0.335,5.145,1.007,7.374
	c0.674,2.244,1.781,4.136,3.354,5.702c1.563,1.58,3.455,2.795,5.702,3.69c2.234,0.903,4.693,1.341,7.375,1.341
	c2.236,0,4.463-0.438,6.708-1.341c2.237-0.896,4.128-2.11,5.702-3.69c1.563-1.566,2.783-3.458,3.687-5.702
	c0.896-2.229,1.341-4.686,1.341-7.374c0-2.682-0.445-5.032-1.341-7.043c-0.903-2.012-2.124-3.79-3.687-5.363
	c-1.574-1.567-3.465-2.787-5.702-3.691c-2.245-0.889-4.472-1.341-6.708-1.341c-2.682,0-5.141,0.452-7.375,1.341
	c-2.247,0.904-4.139,2.124-5.702,3.691c-1.573,1.573-2.681,3.352-3.354,5.363C965.459,106.306,965.124,108.656,965.124,111.338z
	 M967.81,111.338c0-1.779,0.336-3.578,1.006-5.363c0.67-1.786,1.778-3.459,3.353-5.032c1.566-1.567,3.122-2.682,4.696-3.353
	c1.563-0.67,3.454-1.008,5.698-1.008c2.236,0,4.128,0.338,5.701,1.008c1.567,0.671,3.12,1.785,4.697,3.353
	c1.563,1.573,2.682,3.246,3.352,5.032c0.671,1.785,1.007,3.584,1.007,5.363c0,2.25-0.336,4.255-1.007,6.033
	c-0.67,1.793-1.789,3.359-3.352,4.699c-1.577,1.342-3.13,2.457-4.697,3.354c-1.573,0.902-3.465,1.34-5.701,1.34
	c-2.244,0-4.136-0.438-5.698-1.34c-1.574-0.896-3.13-2.012-4.696-3.354c-1.574-1.34-2.683-2.906-3.353-4.699
	C968.146,115.593,967.81,113.588,967.81,111.338z M975.188,122.07h3.353v-9.393h4.022l5.366,9.393h3.353l-6.033-9.393
	c1.777,0,3.119-0.438,4.022-1.34c0.896-0.896,1.341-2.237,1.341-4.023c0-4.029-2.244-6.033-6.705-6.033h-8.719V122.07z
	 M978.54,103.285h4.022c1.344,0,2.572,0.24,3.69,0.678c1.107,0.444,1.676,1.574,1.676,3.352c0,1.342-0.568,2.244-1.676,2.682
	c-1.118,0.445-2.347,0.671-3.69,0.671h-4.022V103.285z"/>
</svg>
