<svg id="svg" version="1.1" xmlns="http://www.w3.org/2000/svg" xmlns:xlink="http://www.w3.org/1999/xlink" width="400" height="314.1852286049238" viewBox="0, 0, 400,314.1852286049238"><g id="svgg"><path id="path0" d="M144.333 71.958 C 144.334 83.343,144.402 92.318,144.496 93.333 C 144.585 94.296,144.884 97.971,145.160 101.500 C 145.437 105.029,145.704 108.209,145.754 108.565 L 145.845 109.214 144.012 107.458 C 137.981 101.679,131.683 98.437,124.500 97.414 C 100.082 93.937,77.814 111.380,70.511 139.706 C 66.688 154.536,67.768 177.051,72.971 191.000 C 80.577 211.388,95.068 222.750,114.843 223.829 C 125.998 224.437,137.585 219.809,146.875 211.033 C 147.997 209.974,148.238 209.819,148.697 209.864 L 149.226 209.917 150.282 214.000 C 150.862 216.246,151.501 218.740,151.703 219.542 L 152.069 221.000 169.034 221.000 L 186.000 221.000 186.000 136.667 L 186.000 52.333 165.167 52.333 L 144.333 52.333 144.333 71.958 M281.917 97.110 C 272.275 97.891,262.617 102.100,254.129 109.218 C 252.254 110.791,251.913 111.013,251.449 110.968 L 250.917 110.917 249.710 106.250 C 249.047 103.683,248.404 101.208,248.283 100.750 L 248.063 99.917 231.115 99.874 L 214.167 99.832 214.167 181.749 L 214.167 263.667 235.000 263.667 L 255.833 263.667 255.833 247.069 C 255.833 230.796,255.825 230.370,255.414 225.360 C 254.897 219.068,254.368 211.932,254.413 211.873 C 254.432 211.850,255.078 212.413,255.849 213.125 C 267.989 224.340,283.472 226.998,298.316 220.416 C 322.769 209.575,335.479 180.671,331.150 145.750 C 327.251 114.298,307.736 95.018,281.917 97.110 M132.583 131.243 C 137.359 132.037,140.431 133.357,143.375 135.879 L 144.333 136.700 144.333 159.031 L 144.333 181.362 143.461 182.639 C 136.833 192.340,122.502 192.738,115.863 183.405 C 112.178 178.224,110.651 170.535,110.887 158.333 C 111.117 146.365,112.982 140.180,117.792 135.430 C 121.954 131.319,126.058 130.157,132.583 131.243 M274.750 131.012 C 282.440 131.925,287.032 137.436,288.568 147.599 C 289.928 156.599,289.394 169.820,287.414 176.167 C 285.461 182.428,282.349 186.335,277.451 188.676 C 271.674 191.438,262.910 189.891,256.819 185.033 L 255.836 184.250 255.835 161.864 L 255.833 139.479 258.042 137.274 C 263.255 132.070,268.163 130.231,274.750 131.012 " stroke="none" fill="#fbfbfb" fill-rule="evenodd"></path><path id="path1" d="M42.000 0.118 C 35.141 0.877,26.851 4.554,20.787 9.528 C 18.167 11.678,13.609 16.708,12.683 18.471 C 12.554 18.716,12.048 19.528,11.558 20.275 C 11.069 21.022,10.452 22.109,10.188 22.691 C 9.924 23.274,9.408 24.387,9.042 25.167 C 7.651 28.127,6.418 32.709,5.905 36.827 C 5.599 39.281,5.541 273.390,5.845 276.138 C 6.182 279.175,7.448 284.402,8.405 286.704 C 9.684 289.781,11.677 293.655,12.160 294.000 C 12.224 294.046,12.489 294.479,12.750 294.962 C 13.010 295.445,13.511 296.157,13.862 296.545 C 14.213 296.933,14.707 297.549,14.959 297.914 C 15.507 298.708,17.262 300.607,18.417 301.657 C 18.875 302.073,19.587 302.753,20.000 303.169 C 20.412 303.584,21.181 304.213,21.708 304.566 C 22.235 304.919,22.667 305.254,22.667 305.312 C 22.667 305.428,23.998 306.360,24.793 306.800 C 25.075 306.956,26.076 307.552,27.019 308.125 C 27.961 308.698,28.840 309.167,28.971 309.167 C 29.102 309.167,29.594 309.386,30.063 309.653 C 31.009 310.192,33.970 311.414,34.750 311.587 C 35.025 311.648,36.299 311.956,37.581 312.272 C 38.863 312.587,40.588 312.973,41.415 313.130 C 43.300 313.487,353.235 313.681,356.833 313.327 C 366.603 312.365,375.173 308.309,382.177 301.333 C 388.983 294.556,392.725 286.964,394.074 277.203 C 394.450 274.475,394.466 39.449,394.090 36.667 C 391.507 17.570,376.743 2.585,358.128 0.168 C 356.979 0.018,43.345 -0.031,42.000 0.118 M186.000 136.667 L 186.000 221.167 169.006 221.167 L 152.013 221.167 151.853 220.542 C 151.764 220.198,151.202 218.042,150.603 215.750 C 150.004 213.458,149.427 211.227,149.321 210.792 C 149.028 209.593,148.504 209.667,146.950 211.126 C 133.275 223.961,115.901 227.389,99.167 220.555 C 76.701 211.381,64.417 181.669,68.928 147.419 C 73.005 116.458,96.762 94.170,122.583 97.081 C 131.239 98.056,137.472 101.044,144.145 107.416 L 145.716 108.917 145.604 107.750 C 145.542 107.108,145.215 103.621,144.878 100.000 L 144.264 93.417 144.210 73.010 C 144.180 61.786,144.193 52.505,144.239 52.385 C 144.308 52.207,148.136 52.167,165.161 52.167 L 186.000 52.167 186.000 136.667 M288.917 97.006 C 318.602 99.517,336.020 129.873,331.328 170.917 C 328.700 193.903,315.967 213.119,298.500 220.461 C 282.938 227.001,268.037 224.523,255.931 213.381 C 255.205 212.713,254.582 212.195,254.547 212.231 C 254.512 212.266,254.747 215.510,255.070 219.439 C 255.392 223.368,255.737 227.708,255.836 229.083 C 255.951 230.690,255.998 237.330,255.966 247.667 L 255.917 263.750 235.042 263.792 L 214.167 263.835 214.167 181.751 L 214.167 99.667 231.140 99.667 L 248.113 99.667 249.216 103.875 C 249.823 106.190,250.482 108.740,250.680 109.542 C 251.155 111.460,251.292 111.463,253.485 109.605 C 264.465 100.296,276.639 95.967,288.917 97.006 M127.000 130.961 C 120.962 131.314,115.060 136.746,112.832 144.000 C 110.541 151.457,110.230 163.869,112.090 173.626 C 114.361 185.543,121.968 191.452,132.650 189.597 C 137.177 188.810,140.796 186.445,143.393 182.573 L 144.167 181.420 144.167 159.058 L 144.167 136.695 143.375 135.997 C 139.685 132.741,132.794 130.622,127.000 130.961 M271.500 130.955 C 266.242 131.178,262.061 133.228,257.708 137.717 L 256.000 139.479 256.001 161.865 L 256.003 184.250 257.023 185.064 C 262.920 189.766,271.786 191.261,277.552 188.525 C 285.677 184.671,289.216 175.708,289.211 159.000 C 289.204 139.196,283.675 130.440,271.500 130.955 " stroke="none" fill="#14344c" fill-rule="evenodd"></path><path id="path2" d="M144.244 52.375 C 144.200 52.490,144.184 61.508,144.208 72.417 L 144.251 92.250 144.292 72.292 L 144.333 52.335 165.208 52.292 L 186.083 52.249 165.203 52.208 C 148.622 52.175,144.307 52.210,144.244 52.375 M144.385 93.250 C 144.386 93.800,144.417 94.005,144.454 93.705 C 144.491 93.406,144.490 92.956,144.452 92.705 C 144.414 92.455,144.384 92.700,144.385 93.250 M144.552 95.250 C 144.553 95.800,144.584 96.005,144.621 95.705 C 144.658 95.406,144.657 94.956,144.619 94.705 C 144.581 94.455,144.551 94.700,144.552 95.250 M144.718 97.250 C 144.719 97.800,144.750 98.005,144.787 97.705 C 144.825 97.406,144.824 96.956,144.786 96.705 C 144.748 96.455,144.717 96.700,144.718 97.250 M116.708 96.957 C 117.510 96.988,118.823 96.988,119.625 96.957 C 120.427 96.927,119.771 96.902,118.167 96.902 C 116.563 96.902,115.906 96.927,116.708 96.957 M284.125 96.957 C 284.790 96.989,285.877 96.989,286.542 96.957 C 287.206 96.925,286.662 96.900,285.333 96.900 C 284.004 96.900,283.460 96.925,284.125 96.957 M113.711 97.120 C 113.964 97.158,114.339 97.157,114.544 97.117 C 114.749 97.078,114.542 97.046,114.083 97.048 C 113.625 97.049,113.457 97.081,113.711 97.120 M121.544 97.120 C 121.797 97.158,122.172 97.157,122.377 97.117 C 122.582 97.078,122.375 97.046,121.917 97.048 C 121.458 97.049,121.291 97.081,121.544 97.120 M281.128 97.121 C 281.428 97.158,281.878 97.157,282.128 97.119 C 282.378 97.081,282.133 97.051,281.583 97.052 C 281.033 97.053,280.828 97.084,281.128 97.121 M288.542 97.119 C 288.794 97.158,289.206 97.158,289.458 97.119 C 289.710 97.081,289.504 97.050,289.000 97.050 C 288.496 97.050,288.290 97.081,288.542 97.119 M112.208 97.282 C 112.369 97.323,112.631 97.323,112.792 97.282 C 112.952 97.240,112.821 97.205,112.500 97.205 C 112.179 97.205,112.048 97.240,112.208 97.282 M123.375 97.282 C 123.535 97.323,123.798 97.323,123.958 97.282 C 124.119 97.240,123.987 97.205,123.667 97.205 C 123.346 97.205,123.215 97.240,123.375 97.282 M290.460 97.285 C 290.668 97.324,290.968 97.323,291.127 97.281 C 291.286 97.239,291.117 97.207,290.750 97.209 C 290.383 97.211,290.253 97.245,290.460 97.285 M144.883 99.167 C 144.883 99.671,144.915 99.877,144.953 99.625 C 144.991 99.373,144.991 98.960,144.953 98.708 C 144.915 98.456,144.883 98.662,144.883 99.167 M271.917 99.000 C 271.458 99.169,271.196 99.307,271.333 99.307 C 271.471 99.307,271.958 99.169,272.417 99.000 C 272.875 98.831,273.137 98.693,273.000 98.693 C 272.862 98.693,272.375 98.831,271.917 99.000 M104.365 99.114 C 103.969 99.254,103.675 99.398,103.711 99.434 C 103.787 99.510,105.333 99.002,105.333 98.901 C 105.333 98.797,105.144 98.838,104.365 99.114 M131.000 98.972 C 131.137 99.057,131.438 99.176,131.667 99.238 C 131.956 99.315,132.007 99.302,131.833 99.195 C 131.696 99.110,131.396 98.990,131.167 98.929 C 130.877 98.851,130.826 98.865,131.000 98.972 M298.516 98.892 C 298.652 99.046,301.542 100.014,301.623 99.933 C 301.658 99.897,301.064 99.662,300.302 99.409 C 299.540 99.157,298.804 98.913,298.667 98.866 C 298.529 98.819,298.461 98.830,298.516 98.892 M132.500 99.583 C 132.729 99.714,132.992 99.822,133.083 99.822 C 133.175 99.822,133.063 99.714,132.833 99.583 C 132.604 99.452,132.342 99.345,132.250 99.345 C 132.158 99.345,132.271 99.452,132.500 99.583 M220.167 99.789 C 236.144 99.904,248.167 99.905,248.167 99.792 C 248.167 99.723,240.498 99.684,231.125 99.706 C 221.752 99.728,216.821 99.765,220.167 99.789 M101.167 100.417 C 100.938 100.548,100.825 100.655,100.917 100.655 C 101.008 100.655,101.271 100.548,101.500 100.417 C 101.729 100.286,101.842 100.178,101.750 100.178 C 101.658 100.178,101.396 100.286,101.167 100.417 M145.050 101.167 C 145.050 101.671,145.081 101.877,145.119 101.625 C 145.158 101.373,145.158 100.960,145.119 100.708 C 145.081 100.456,145.050 100.662,145.050 101.167 M99.292 101.262 C 98.645 101.613,98.719 101.734,99.375 101.400 C 100.003 101.080,100.114 100.997,99.903 101.007 C 99.819 101.010,99.544 101.125,99.292 101.262 M135.917 101.288 C 136.008 101.375,136.383 101.615,136.750 101.821 C 137.117 102.027,137.267 102.071,137.083 101.918 C 136.711 101.609,135.655 101.038,135.917 101.288 M304.667 101.410 C 304.667 101.456,304.967 101.646,305.333 101.833 C 305.700 102.020,306.000 102.136,306.000 102.090 C 306.000 102.044,305.700 101.854,305.333 101.667 C 304.967 101.480,304.667 101.364,304.667 101.410 M264.625 102.011 C 264.098 102.283,263.667 102.543,263.667 102.588 C 263.667 102.663,265.650 101.719,265.819 101.564 C 266.038 101.364,265.457 101.581,264.625 102.011 M97.792 102.094 C 97.356 102.321,97.000 102.544,97.000 102.589 C 97.000 102.635,97.375 102.482,97.833 102.250 C 98.292 102.018,98.667 101.791,98.667 101.747 C 98.667 101.637,98.682 101.631,97.792 102.094 M306.167 102.241 C 306.167 102.287,306.392 102.441,306.667 102.583 C 306.942 102.726,307.167 102.804,307.167 102.759 C 307.167 102.713,306.942 102.559,306.667 102.417 C 306.392 102.274,306.167 102.196,306.167 102.241 M145.212 103.167 C 145.212 103.579,145.245 103.748,145.284 103.542 C 145.324 103.335,145.324 102.998,145.284 102.792 C 145.245 102.585,145.212 102.754,145.212 103.167 M308.162 103.446 C 309.647 104.544,311.004 105.474,310.918 105.335 C 310.801 105.146,308.988 103.849,308.250 103.427 C 307.755 103.144,307.754 103.145,308.162 103.446 M139.500 103.564 C 139.500 103.610,139.950 103.993,140.500 104.417 C 141.050 104.840,141.500 105.149,141.500 105.103 C 141.500 105.057,141.050 104.673,140.500 104.250 C 139.950 103.827,139.500 103.518,139.500 103.564 M260.359 104.496 C 259.795 104.861,259.333 105.197,259.333 105.243 C 259.333 105.317,261.279 104.110,261.476 103.913 C 261.712 103.677,261.269 103.908,260.359 104.496 M93.622 104.589 C 93.280 104.822,93.000 105.048,93.000 105.092 C 93.000 105.136,93.300 104.973,93.667 104.730 C 94.249 104.345,94.446 104.167,94.289 104.167 C 94.264 104.167,93.964 104.357,93.622 104.589 M145.372 105.167 C 145.372 105.487,145.406 105.619,145.448 105.458 C 145.490 105.298,145.490 105.035,145.448 104.875 C 145.406 104.715,145.372 104.846,145.372 105.167 M141.833 105.385 C 141.833 105.414,142.077 105.658,142.375 105.927 L 142.917 106.417 142.427 105.875 C 141.971 105.370,141.833 105.257,141.833 105.385 M257.610 106.343 C 257.091 106.714,256.667 107.058,256.667 107.107 C 256.667 107.185,258.159 106.166,258.575 105.804 C 259.001 105.434,258.450 105.741,257.610 106.343 M144.330 107.708 C 145.895 109.324,145.833 109.275,145.833 108.889 C 145.833 108.736,145.781 108.663,145.717 108.727 C 145.653 108.791,144.997 108.260,144.259 107.547 L 142.917 106.250 144.330 107.708 M312.167 106.385 C 312.167 106.414,312.410 106.658,312.708 106.927 L 313.250 107.417 312.760 106.875 C 312.304 106.370,312.167 106.257,312.167 106.385 M89.406 107.875 L 88.917 108.417 89.458 107.927 C 89.963 107.471,90.077 107.333,89.948 107.333 C 89.919 107.333,89.675 107.577,89.406 107.875 M315.167 109.250 C 316.218 110.304,317.115 111.167,317.161 111.167 C 317.207 111.167,316.385 110.304,315.333 109.250 C 314.282 108.196,313.385 107.333,313.339 107.333 C 313.293 107.333,314.115 108.196,315.167 109.250 M86.581 110.542 L 84.417 112.750 86.625 110.586 C 88.676 108.575,88.909 108.333,88.789 108.333 C 88.765 108.333,87.771 109.327,86.581 110.542 M252.917 110.105 L 251.917 111.035 252.958 110.168 C 253.864 109.413,254.124 109.155,253.958 109.171 C 253.935 109.173,253.467 109.593,252.917 110.105 M317.731 112.049 C 318.084 112.481,318.408 112.833,318.451 112.833 C 318.564 112.833,317.509 111.525,317.282 111.385 C 317.176 111.319,317.378 111.618,317.731 112.049 M83.742 113.542 L 83.083 114.250 83.792 113.591 C 84.450 112.978,84.577 112.833,84.450 112.833 C 84.423 112.833,84.105 113.152,83.742 113.542 M320.940 116.333 C 321.366 116.975,321.746 117.500,321.784 117.500 C 321.873 117.500,321.749 117.292,320.965 116.125 C 320.611 115.598,320.286 115.167,320.242 115.167 C 320.199 115.167,320.513 115.692,320.940 116.333 M81.667 116.000 C 81.376 116.367,81.176 116.667,81.222 116.667 C 81.268 116.667,81.543 116.367,81.833 116.000 C 82.124 115.633,82.324 115.333,82.278 115.333 C 82.232 115.333,81.957 115.633,81.667 116.000 M323.333 120.333 C 323.611 120.883,323.876 121.333,323.921 121.333 C 323.967 121.333,323.778 120.883,323.500 120.333 C 323.222 119.783,322.958 119.333,322.912 119.333 C 322.866 119.333,323.056 119.783,323.333 120.333 M324.616 122.748 C 324.768 123.068,324.923 123.300,324.959 123.263 C 325.035 123.187,324.529 122.167,324.415 122.167 C 324.373 122.167,324.463 122.428,324.616 122.748 M76.667 123.667 C 76.389 124.217,76.199 124.667,76.245 124.667 C 76.291 124.667,76.556 124.217,76.833 123.667 C 77.111 123.117,77.301 122.667,77.255 122.667 C 77.209 122.667,76.944 123.117,76.667 123.667 M325.348 124.250 C 325.348 124.342,325.529 124.754,325.750 125.167 C 325.971 125.579,326.152 125.842,326.152 125.750 C 326.152 125.658,325.971 125.246,325.750 124.833 C 325.529 124.421,325.348 124.158,325.348 124.250 M75.075 126.683 C 74.838 127.151,74.672 127.561,74.706 127.595 C 74.741 127.629,74.970 127.247,75.216 126.745 C 75.462 126.244,75.628 125.833,75.584 125.833 C 75.541 125.833,75.312 126.216,75.075 126.683 M74.031 128.925 C 73.529 129.958,73.585 130.103,74.103 129.109 C 74.334 128.664,74.494 128.272,74.460 128.237 C 74.425 128.202,74.232 128.512,74.031 128.925 M327.857 130.500 C 327.857 130.637,327.921 130.900,328.000 131.083 C 328.090 131.293,328.143 131.324,328.143 131.167 C 328.143 131.029,328.079 130.767,328.000 130.583 C 327.910 130.373,327.857 130.342,327.857 130.500 M126.625 130.951 C 126.831 130.991,127.169 130.991,127.375 130.951 C 127.581 130.911,127.412 130.879,127.000 130.879 C 126.587 130.879,126.419 130.911,126.625 130.951 M128.292 130.954 C 128.590 130.991,129.077 130.991,129.375 130.954 C 129.673 130.917,129.429 130.887,128.833 130.887 C 128.237 130.887,127.994 130.917,128.292 130.954 M271.042 130.953 C 271.294 130.991,271.706 130.991,271.958 130.953 C 272.210 130.915,272.004 130.883,271.500 130.883 C 270.996 130.883,270.790 130.915,271.042 130.953 M272.792 130.951 C 272.998 130.991,273.335 130.991,273.542 130.951 C 273.748 130.911,273.579 130.879,273.167 130.879 C 272.754 130.879,272.585 130.911,272.792 130.951 M134.167 131.667 C 134.396 131.740,134.733 131.800,134.917 131.800 C 135.181 131.800,135.163 131.772,134.833 131.667 C 134.604 131.593,134.267 131.533,134.083 131.533 C 133.819 131.533,133.837 131.561,134.167 131.667 M266.583 131.667 C 266.373 131.757,266.342 131.810,266.500 131.810 C 266.637 131.810,266.900 131.745,267.083 131.667 C 267.293 131.576,267.324 131.523,267.167 131.523 C 267.029 131.523,266.767 131.588,266.583 131.667 M328.192 131.667 C 328.192 131.804,328.293 132.179,328.417 132.500 C 328.540 132.821,328.641 132.971,328.641 132.833 C 328.641 132.696,328.540 132.321,328.417 132.000 C 328.293 131.679,328.192 131.529,328.192 131.667 M121.958 132.261 C 121.523 132.488,121.167 132.710,121.167 132.756 C 121.167 132.830,122.817 132.051,122.986 131.897 C 123.192 131.709,122.650 131.901,121.958 132.261 M135.667 132.000 C 136.237 132.183,136.675 132.183,136.250 132.000 C 136.067 131.921,135.767 131.859,135.583 131.862 C 135.315 131.866,135.332 131.893,135.667 132.000 M278.667 132.083 C 278.896 132.214,279.158 132.322,279.250 132.322 C 279.342 132.322,279.229 132.214,279.000 132.083 C 278.771 131.952,278.508 131.845,278.417 131.845 C 278.325 131.845,278.438 131.952,278.667 132.083 M265.000 132.250 C 264.771 132.381,264.658 132.488,264.750 132.488 C 264.842 132.488,265.104 132.381,265.333 132.250 C 265.563 132.119,265.675 132.012,265.583 132.012 C 265.492 132.012,265.229 132.119,265.000 132.250 M263.792 132.762 C 263.145 133.113,263.219 133.234,263.875 132.900 C 264.503 132.580,264.614 132.497,264.403 132.507 C 264.319 132.510,264.044 132.625,263.792 132.762 M328.690 133.333 C 328.690 133.471,328.755 133.733,328.833 133.917 C 328.924 134.127,328.977 134.158,328.977 134.000 C 328.977 133.862,328.912 133.600,328.833 133.417 C 328.743 133.207,328.690 133.176,328.690 133.333 M119.146 134.179 L 118.417 134.859 119.208 134.228 C 119.644 133.880,120.000 133.574,120.000 133.548 C 120.000 133.420,119.818 133.554,119.146 134.179 M281.500 133.530 C 281.500 133.563,282.081 134.109,282.792 134.743 C 283.502 135.377,283.858 135.649,283.583 135.349 C 283.076 134.795,281.500 133.418,281.500 133.530 M140.822 134.135 C 141.045 134.316,141.458 134.591,141.739 134.746 L 142.250 135.028 141.844 134.698 C 141.621 134.517,141.209 134.242,140.928 134.087 L 140.417 133.806 140.822 134.135 M260.958 134.586 C 260.431 135.000,260.000 135.375,260.000 135.419 C 260.000 135.463,260.450 135.150,261.000 134.723 C 261.886 134.035,262.104 133.833,261.958 133.833 C 261.935 133.833,261.485 134.172,260.958 134.586 M71.682 135.015 C 71.569 135.391,71.508 135.730,71.545 135.767 C 71.583 135.805,71.705 135.528,71.818 135.152 C 71.931 134.775,71.992 134.437,71.955 134.399 C 71.917 134.362,71.795 134.639,71.682 135.015 M143.710 136.260 L 144.169 136.771 144.126 159.203 C 144.103 171.540,144.140 181.600,144.208 181.558 C 144.277 181.515,144.333 171.411,144.333 159.105 L 144.333 136.729 143.792 136.240 L 143.250 135.750 143.710 136.260 M257.996 137.292 L 256.583 138.750 258.042 137.337 C 258.844 136.560,259.500 135.904,259.500 135.879 C 259.500 135.757,259.309 135.937,257.996 137.292 M71.262 136.429 C 71.201 136.673,71.183 136.905,71.222 136.944 C 71.261 136.983,71.343 136.816,71.405 136.571 C 71.466 136.327,71.484 136.095,71.445 136.056 C 71.406 136.017,71.323 136.184,71.262 136.429 M116.575 136.708 L 115.917 137.417 116.625 136.758 C 117.284 136.145,117.410 136.000,117.284 136.000 C 117.257 136.000,116.938 136.319,116.575 136.708 M285.077 137.584 C 285.828 138.832,286.012 138.989,285.414 137.872 C 285.156 137.389,284.844 136.911,284.722 136.810 C 284.599 136.708,284.759 137.057,285.077 137.584 M115.040 138.708 C 114.793 139.016,113.802 141.025,113.866 141.089 C 113.897 141.119,114.228 140.549,114.602 139.822 C 115.282 138.500,115.354 138.318,115.040 138.708 M256.033 139.367 C 255.806 139.594,255.732 184.251,255.958 184.391 C 256.027 184.433,256.064 174.377,256.040 162.044 C 256.009 145.568,256.048 139.560,256.186 139.394 C 256.418 139.113,256.306 139.094,256.033 139.367 M330.948 143.917 C 330.999 144.558,331.069 145.115,331.104 145.153 C 331.220 145.281,331.149 144.090,331.001 143.417 C 330.888 142.904,330.876 143.020,330.948 143.917 M287.700 143.750 C 287.700 143.933,287.760 144.271,287.833 144.500 C 287.939 144.830,287.967 144.847,287.967 144.583 C 287.967 144.400,287.907 144.063,287.833 143.833 C 287.728 143.503,287.700 143.486,287.700 143.750 M69.258 145.091 C 69.194 145.516,69.176 145.898,69.217 145.940 C 69.259 145.981,69.345 145.668,69.409 145.242 C 69.473 144.817,69.491 144.435,69.449 144.394 C 69.408 144.352,69.321 144.666,69.258 145.091 M112.429 144.762 C 112.367 145.006,112.349 145.238,112.389 145.277 C 112.428 145.317,112.510 145.149,112.571 144.905 C 112.633 144.661,112.651 144.429,112.611 144.389 C 112.572 144.350,112.490 144.518,112.429 144.762 M331.209 145.917 C 331.211 146.283,331.245 146.414,331.285 146.206 C 331.324 145.999,331.323 145.699,331.281 145.540 C 331.239 145.380,331.207 145.550,331.209 145.917 M112.093 146.093 C 112.030 146.427,112.012 146.734,112.053 146.775 C 112.093 146.816,112.178 146.575,112.241 146.241 C 112.303 145.906,112.321 145.599,112.281 145.559 C 112.240 145.518,112.155 145.758,112.093 146.093 M69.042 146.750 C 69.044 147.117,69.078 147.247,69.118 147.040 C 69.158 146.832,69.156 146.532,69.115 146.373 C 69.073 146.214,69.040 146.383,69.042 146.750 M331.372 147.333 C 331.372 147.654,331.406 147.785,331.448 147.625 C 331.490 147.465,331.490 147.202,331.448 147.042 C 331.406 146.881,331.372 147.012,331.372 147.333 M111.779 147.482 C 111.717 147.790,111.675 148.201,111.685 148.396 C 111.695 148.591,111.770 148.412,111.851 148.000 C 111.932 147.587,111.974 147.176,111.944 147.086 C 111.915 146.996,111.840 147.174,111.779 147.482 M68.875 148.083 C 68.877 148.450,68.911 148.580,68.951 148.373 C 68.991 148.166,68.990 147.866,68.948 147.706 C 68.906 147.547,68.874 147.717,68.875 148.083 M331.548 149.083 C 331.549 149.542,331.581 149.709,331.620 149.456 C 331.658 149.203,331.657 148.828,331.617 148.623 C 331.578 148.418,331.546 148.625,331.548 149.083 M288.705 149.167 C 288.705 149.487,288.740 149.619,288.782 149.458 C 288.823 149.298,288.823 149.035,288.782 148.875 C 288.740 148.715,288.705 148.846,288.705 149.167 M68.709 149.417 C 68.711 149.783,68.745 149.914,68.785 149.706 C 68.824 149.499,68.823 149.199,68.781 149.040 C 68.739 148.880,68.707 149.050,68.709 149.417 M68.542 151.083 C 68.544 151.450,68.578 151.580,68.618 151.373 C 68.658 151.166,68.656 150.866,68.615 150.706 C 68.573 150.547,68.540 150.717,68.542 151.083 M331.709 151.417 C 331.711 151.783,331.745 151.914,331.785 151.706 C 331.824 151.499,331.823 151.199,331.781 151.040 C 331.739 150.880,331.707 151.050,331.709 151.417 M111.205 151.833 C 111.205 152.154,111.240 152.285,111.282 152.125 C 111.323 151.965,111.323 151.702,111.282 151.542 C 111.240 151.381,111.205 151.512,111.205 151.833 M289.048 152.583 C 289.049 153.042,289.081 153.209,289.120 152.956 C 289.158 152.703,289.157 152.328,289.117 152.123 C 289.078 151.918,289.046 152.125,289.048 152.583 M68.379 153.167 C 68.379 153.579,68.411 153.748,68.451 153.542 C 68.491 153.335,68.491 152.998,68.451 152.792 C 68.411 152.585,68.379 152.754,68.379 153.167 M111.042 153.417 C 111.044 153.783,111.078 153.914,111.118 153.706 C 111.158 153.499,111.156 153.199,111.115 153.040 C 111.073 152.880,111.040 153.050,111.042 153.417 M331.895 154.833 C 331.895 155.796,331.923 156.190,331.956 155.708 C 331.990 155.227,331.990 154.440,331.956 153.958 C 331.923 153.477,331.895 153.871,331.895 154.833 M289.224 155.917 C 289.224 156.650,289.254 156.929,289.289 156.537 C 289.324 156.145,289.324 155.545,289.288 155.204 C 289.252 154.863,289.223 155.183,289.224 155.917 M68.220 155.833 C 68.220 156.429,68.250 156.673,68.287 156.375 C 68.324 156.077,68.324 155.590,68.287 155.292 C 68.250 154.994,68.220 155.237,68.220 155.833 M110.892 156.833 C 110.892 157.612,110.920 157.931,110.955 157.542 C 110.990 157.152,110.990 156.515,110.955 156.125 C 110.920 155.735,110.892 156.054,110.892 156.833 M289.225 162.167 C 289.225 162.946,289.254 163.265,289.289 162.875 C 289.324 162.485,289.324 161.848,289.289 161.458 C 289.254 161.069,289.225 161.387,289.225 162.167 M331.893 162.833 C 331.893 163.704,331.922 164.060,331.956 163.625 C 331.990 163.190,331.990 162.477,331.956 162.042 C 331.922 161.606,331.893 161.962,331.893 162.833 M110.881 164.250 C 110.882 164.708,110.915 164.876,110.953 164.623 C 110.991 164.369,110.990 163.994,110.951 163.789 C 110.911 163.584,110.880 163.792,110.881 164.250 M68.221 165.417 C 68.222 166.058,68.252 166.300,68.288 165.955 C 68.324 165.609,68.324 165.084,68.287 164.788 C 68.250 164.492,68.221 164.775,68.221 165.417 M289.048 165.583 C 289.049 166.042,289.081 166.209,289.120 165.956 C 289.158 165.703,289.157 165.328,289.117 165.123 C 289.078 164.918,289.046 165.125,289.048 165.583 M331.712 166.000 C 331.712 166.412,331.745 166.581,331.784 166.375 C 331.824 166.169,331.824 165.831,331.784 165.625 C 331.745 165.419,331.712 165.587,331.712 166.000 M111.042 166.750 C 111.044 167.117,111.078 167.247,111.118 167.040 C 111.158 166.832,111.156 166.532,111.115 166.373 C 111.073 166.214,111.040 166.383,111.042 166.750 M68.379 168.167 C 68.379 168.579,68.411 168.748,68.451 168.542 C 68.491 168.335,68.491 167.998,68.451 167.792 C 68.411 167.585,68.379 167.754,68.379 168.167 M331.542 168.250 C 331.544 168.617,331.578 168.747,331.618 168.540 C 331.658 168.332,331.656 168.032,331.615 167.873 C 331.573 167.714,331.540 167.883,331.542 168.250 M111.205 168.500 C 111.205 168.821,111.240 168.952,111.282 168.792 C 111.323 168.631,111.323 168.369,111.282 168.208 C 111.240 168.048,111.205 168.179,111.205 168.500 M288.705 169.167 C 288.705 169.487,288.740 169.619,288.782 169.458 C 288.823 169.298,288.823 169.035,288.782 168.875 C 288.740 168.715,288.705 168.846,288.705 169.167 M111.372 170.000 C 111.372 170.321,111.406 170.452,111.448 170.292 C 111.490 170.131,111.490 169.869,111.448 169.708 C 111.406 169.548,111.372 169.679,111.372 170.000 M68.545 170.500 C 68.545 170.912,68.578 171.081,68.618 170.875 C 68.657 170.669,68.657 170.331,68.618 170.125 C 68.578 169.919,68.545 170.087,68.545 170.500 M111.539 171.167 C 111.539 171.487,111.573 171.619,111.615 171.458 C 111.657 171.298,111.657 171.035,111.615 170.875 C 111.573 170.715,111.539 170.846,111.539 171.167 M331.205 171.167 C 331.205 171.487,331.240 171.619,331.282 171.458 C 331.323 171.298,331.323 171.035,331.282 170.875 C 331.240 170.715,331.205 170.846,331.205 171.167 M288.264 171.847 C 288.201 172.319,288.184 172.739,288.225 172.780 C 288.266 172.821,288.352 172.470,288.417 172.000 C 288.481 171.530,288.499 171.110,288.456 171.067 C 288.413 171.024,288.327 171.375,288.264 171.847 M68.709 172.250 C 68.711 172.617,68.745 172.747,68.785 172.540 C 68.824 172.332,68.823 172.032,68.781 171.873 C 68.739 171.714,68.707 171.883,68.709 172.250 M111.681 172.083 C 111.662 172.527,112.212 175.282,112.278 175.077 C 112.307 174.989,112.187 174.204,112.013 173.333 C 111.838 172.463,111.688 171.900,111.681 172.083 M331.042 172.583 C 331.044 172.950,331.078 173.080,331.118 172.873 C 331.158 172.666,331.156 172.366,331.115 172.206 C 331.073 172.047,331.040 172.217,331.042 172.583 M68.879 173.667 C 68.879 174.079,68.911 174.248,68.951 174.042 C 68.991 173.835,68.991 173.498,68.951 173.292 C 68.911 173.085,68.879 173.254,68.879 173.667 M287.926 173.593 C 287.863 173.927,287.845 174.234,287.886 174.275 C 287.927 174.316,288.011 174.075,288.074 173.741 C 288.137 173.406,288.155 173.099,288.114 173.059 C 288.073 173.018,287.989 173.258,287.926 173.593 M330.583 175.167 C 330.519 175.637,330.501 176.057,330.544 176.100 C 330.587 176.143,330.673 175.792,330.736 175.319 C 330.799 174.847,330.816 174.428,330.775 174.387 C 330.734 174.346,330.648 174.697,330.583 175.167 M69.042 175.083 C 69.044 175.450,69.078 175.580,69.118 175.373 C 69.158 175.166,69.156 174.866,69.115 174.706 C 69.073 174.547,69.040 174.717,69.042 175.083 M285.820 180.034 C 285.598 180.511,285.173 181.317,284.875 181.825 C 284.571 182.344,284.487 182.567,284.685 182.333 C 285.081 181.865,286.390 179.335,286.289 179.233 C 286.253 179.197,286.042 179.558,285.820 180.034 M114.167 180.564 C 114.167 180.743,114.663 181.667,114.759 181.667 C 114.804 181.667,114.718 181.423,114.566 181.125 C 114.257 180.517,114.167 180.390,114.167 180.564 M282.818 184.542 C 282.233 185.206,281.887 185.645,282.048 185.518 C 282.399 185.240,284.066 183.333,283.957 183.333 C 283.916 183.333,283.403 183.877,282.818 184.542 M141.262 185.128 C 140.443 186.020,140.168 186.375,140.650 185.917 C 141.465 185.142,142.937 183.496,142.807 183.503 C 142.776 183.505,142.080 184.237,141.262 185.128 M116.624 184.417 C 116.908 184.783,117.500 185.421,117.941 185.833 C 118.555 186.408,118.492 186.311,117.674 185.417 C 116.208 183.816,116.026 183.642,116.624 184.417 M328.348 184.682 C 328.236 185.058,328.174 185.396,328.212 185.434 C 328.249 185.471,328.372 185.194,328.485 184.818 C 328.598 184.442,328.659 184.104,328.622 184.066 C 328.584 184.029,328.461 184.306,328.348 184.682 M71.190 185.667 C 71.190 185.804,71.255 186.067,71.333 186.250 C 71.424 186.460,71.477 186.491,71.477 186.333 C 71.477 186.196,71.412 185.933,71.333 185.750 C 71.243 185.540,71.190 185.509,71.190 185.667 M327.867 186.283 C 327.763 186.622,327.705 186.927,327.739 186.961 C 327.773 186.995,327.890 186.750,328.000 186.417 C 328.110 186.084,328.167 185.779,328.128 185.739 C 328.088 185.699,327.971 185.944,327.867 186.283 M280.304 186.805 C 279.228 187.649,279.104 187.819,280.010 187.208 C 280.648 186.776,281.359 186.134,281.145 186.180 C 281.111 186.188,280.733 186.469,280.304 186.805 M119.083 186.807 C 119.264 187.022,119.564 187.275,119.748 187.369 C 120.102 187.550,120.051 187.495,119.251 186.831 C 118.770 186.431,118.764 186.430,119.083 186.807 M71.523 186.833 C 71.523 186.971,71.588 187.233,71.667 187.417 C 71.757 187.627,71.810 187.658,71.810 187.500 C 71.810 187.362,71.745 187.100,71.667 186.917 C 71.576 186.707,71.523 186.676,71.523 186.833 M139.083 187.104 C 138.784 187.359,138.722 187.461,138.930 187.357 C 139.236 187.205,139.809 186.657,139.645 186.673 C 139.611 186.676,139.358 186.870,139.083 187.104 M259.333 186.741 C 259.333 186.787,259.558 186.941,259.833 187.083 C 260.108 187.226,260.333 187.304,260.333 187.259 C 260.333 187.213,260.108 187.059,259.833 186.917 C 259.558 186.774,259.333 186.696,259.333 186.741 M124.250 189.500 C 124.433 189.579,124.733 189.641,124.917 189.638 C 125.185 189.634,125.168 189.607,124.833 189.500 C 124.263 189.317,123.825 189.317,124.250 189.500 M133.083 189.526 C 132.717 189.613,131.704 189.745,130.833 189.819 C 129.384 189.942,129.342 189.955,130.333 189.971 C 131.377 189.988,133.934 189.622,134.128 189.428 C 134.256 189.300,133.885 189.335,133.083 189.526 M266.167 189.500 C 266.396 189.573,266.771 189.632,267.000 189.630 C 267.374 189.628,267.366 189.614,266.917 189.500 C 266.212 189.321,265.606 189.321,266.167 189.500 M274.167 189.667 C 273.837 189.772,273.819 189.800,274.083 189.800 C 274.267 189.800,274.604 189.740,274.833 189.667 C 275.163 189.561,275.181 189.533,274.917 189.533 C 274.733 189.533,274.396 189.593,274.167 189.667 M125.750 189.833 C 126.255 189.962,128.115 190.051,127.986 189.940 C 127.948 189.907,127.317 189.840,126.583 189.792 C 125.827 189.743,125.466 189.760,125.750 189.833 M269.042 189.955 C 269.385 189.991,269.948 189.991,270.292 189.955 C 270.635 189.919,270.354 189.889,269.667 189.889 C 268.979 189.889,268.698 189.919,269.042 189.955 M272.295 189.954 C 272.594 189.991,273.044 189.990,273.295 189.952 C 273.545 189.914,273.300 189.884,272.750 189.885 C 272.200 189.886,271.995 189.917,272.295 189.954 M326.194 190.590 C 325.914 191.203,325.968 191.334,326.270 190.777 C 326.411 190.517,326.495 190.273,326.457 190.235 C 326.419 190.196,326.300 190.357,326.194 190.590 M325.613 191.924 C 325.222 192.745,325.277 192.885,325.686 192.109 C 325.872 191.757,325.995 191.439,325.959 191.403 C 325.923 191.367,325.767 191.602,325.613 191.924 M73.860 193.583 C 73.858 193.805,74.807 195.797,74.812 195.583 C 74.815 195.492,74.602 194.967,74.339 194.417 C 74.077 193.867,73.861 193.492,73.860 193.583 M323.083 197.000 C 322.851 197.458,322.699 197.833,322.744 197.833 C 322.790 197.833,323.018 197.458,323.250 197.000 C 323.482 196.542,323.635 196.167,323.589 196.167 C 323.543 196.167,323.316 196.542,323.083 197.000 M76.667 199.500 C 76.944 200.050,77.209 200.500,77.255 200.500 C 77.301 200.500,77.111 200.050,76.833 199.500 C 76.556 198.950,76.291 198.500,76.245 198.500 C 76.199 198.500,76.389 198.950,76.667 199.500 M321.397 199.875 C 320.823 200.848,320.786 200.931,321.078 200.583 C 321.416 200.180,321.708 199.667,321.599 199.667 C 321.555 199.667,321.464 199.760,321.397 199.875 M319.833 202.250 C 319.550 202.662,319.355 203.000,319.401 203.000 C 319.446 203.000,319.716 202.662,320.000 202.250 C 320.284 201.838,320.479 201.500,320.433 201.500 C 320.387 201.500,320.117 201.838,319.833 202.250 M78.751 203.000 C 78.994 203.455,80.349 205.333,80.434 205.333 C 80.479 205.333,80.163 204.827,79.730 204.208 C 78.921 203.053,78.505 202.539,78.751 203.000 M317.848 205.042 C 317.277 205.798,317.076 206.117,317.403 205.750 C 318.053 205.018,319.060 203.667,318.954 203.667 C 318.917 203.667,318.420 204.285,317.848 205.042 M81.307 206.625 C 81.488 206.877,81.910 207.383,82.245 207.750 C 82.582 208.119,82.464 207.914,81.981 207.292 C 81.118 206.181,80.667 205.735,81.307 206.625 M315.734 207.625 C 315.199 208.244,314.936 208.600,315.149 208.417 C 315.594 208.035,316.904 206.500,316.786 206.500 C 316.743 206.500,316.270 207.006,315.734 207.625 M313.500 210.083 C 313.095 210.496,312.801 210.833,312.847 210.833 C 312.893 210.833,313.262 210.496,313.667 210.083 C 314.072 209.671,314.365 209.333,314.319 209.333 C 314.274 209.333,313.905 209.671,313.500 210.083 M146.950 211.019 L 145.750 212.226 146.942 211.113 C 148.171 209.966,149.031 209.641,149.221 210.253 C 149.276 210.431,149.292 210.419,149.273 210.212 C 149.202 209.405,148.211 209.750,146.950 211.019 M149.528 211.500 C 149.537 211.933,149.799 212.644,149.805 212.250 C 149.808 212.067,149.745 211.767,149.667 211.583 C 149.579 211.379,149.525 211.347,149.528 211.500 M254.333 212.064 C 254.333 212.223,254.397 212.314,254.474 212.266 C 254.551 212.219,255.246 212.758,256.018 213.465 C 256.790 214.172,257.758 215.000,258.169 215.306 L 258.917 215.861 258.167 215.223 C 257.754 214.871,256.929 214.133,256.333 213.583 C 254.366 211.765,254.333 211.740,254.333 212.064 M310.667 212.690 L 309.750 213.537 310.624 212.837 C 311.391 212.223,311.797 211.822,311.635 211.839 C 311.607 211.842,311.171 212.225,310.667 212.690 M86.667 212.385 C 86.667 212.414,86.910 212.658,87.208 212.927 L 87.750 213.417 87.260 212.875 C 86.804 212.370,86.667 212.257,86.667 212.385 M254.539 214.000 C 254.539 214.321,254.573 214.452,254.615 214.292 C 254.657 214.131,254.657 213.869,254.615 213.708 C 254.573 213.548,254.539 213.679,254.539 214.000 M88.330 213.911 C 88.466 214.075,89.178 214.657,89.914 215.202 C 91.404 216.308,91.005 215.905,89.234 214.514 C 88.601 214.017,88.194 213.746,88.330 213.911 M308.083 214.765 L 307.583 215.194 308.125 214.836 C 308.423 214.639,308.667 214.445,308.667 214.405 C 308.667 214.281,308.596 214.324,308.083 214.765 M142.042 215.017 C 141.652 215.292,141.333 215.555,141.333 215.600 C 141.333 215.646,141.671 215.450,142.083 215.167 C 142.496 214.883,142.833 214.617,142.833 214.575 C 142.833 214.461,142.802 214.478,142.042 215.017 M254.712 216.167 C 254.712 216.579,254.745 216.748,254.784 216.542 C 254.824 216.335,254.824 215.998,254.784 215.792 C 254.745 215.585,254.712 215.754,254.712 216.167 M259.254 216.173 C 259.375 216.369,261.833 218.046,261.833 217.933 C 261.833 217.890,261.230 217.440,260.493 216.932 C 259.755 216.424,259.198 216.083,259.254 216.173 M92.583 217.086 C 92.767 217.236,93.067 217.431,93.250 217.521 L 93.583 217.685 93.250 217.414 C 93.067 217.264,92.767 217.069,92.583 216.979 L 92.250 216.815 92.583 217.086 M304.208 217.353 C 303.640 217.716,303.456 217.961,303.958 217.685 C 304.341 217.475,304.940 217.011,304.833 217.008 C 304.787 217.007,304.506 217.162,304.208 217.353 M254.883 218.333 C 254.883 218.838,254.915 219.044,254.953 218.792 C 254.991 218.540,254.991 218.127,254.953 217.875 C 254.915 217.623,254.883 217.829,254.883 218.333 M94.833 218.408 C 94.833 218.454,95.058 218.608,95.333 218.750 C 95.608 218.892,95.833 218.971,95.833 218.925 C 95.833 218.879,95.608 218.726,95.333 218.583 C 95.058 218.441,94.833 218.362,94.833 218.408 M134.333 219.667 C 133.646 220.024,133.141 220.321,133.212 220.325 C 133.390 220.336,135.667 219.182,135.667 219.081 C 135.667 218.969,135.722 218.945,134.333 219.667 M300.333 219.500 C 299.829 219.766,299.475 219.988,299.547 219.992 C 299.724 220.003,301.333 219.182,301.333 219.081 C 301.333 218.969,301.356 218.959,300.333 219.500 M264.167 219.410 C 264.167 219.456,264.467 219.646,264.833 219.833 C 265.200 220.020,265.500 220.136,265.500 220.090 C 265.500 220.044,265.200 219.854,264.833 219.667 C 264.467 219.480,264.167 219.364,264.167 219.410 M255.052 220.417 C 255.053 220.967,255.084 221.172,255.121 220.872 C 255.158 220.572,255.157 220.122,255.119 219.872 C 255.081 219.622,255.051 219.867,255.052 220.417 M298.667 220.250 C 298.438 220.381,298.325 220.488,298.417 220.488 C 298.508 220.488,298.771 220.381,299.000 220.250 C 299.229 220.119,299.342 220.012,299.250 220.012 C 299.158 220.012,298.896 220.119,298.667 220.250 M98.833 220.417 C 99.063 220.548,99.325 220.655,99.417 220.655 C 99.508 220.655,99.396 220.548,99.167 220.417 C 98.938 220.286,98.675 220.178,98.583 220.178 C 98.492 220.178,98.604 220.286,98.833 220.417 M132.333 220.583 C 132.104 220.714,131.992 220.822,132.083 220.822 C 132.175 220.822,132.438 220.714,132.667 220.583 C 132.896 220.452,133.008 220.345,132.917 220.345 C 132.825 220.345,132.563 220.452,132.333 220.583 M266.333 220.583 C 266.563 220.714,266.825 220.822,266.917 220.822 C 267.008 220.822,266.896 220.714,266.667 220.583 C 266.438 220.452,266.175 220.345,266.083 220.345 C 265.992 220.345,266.104 220.452,266.333 220.583 M160.458 221.125 C 165.156 221.150,172.844 221.150,177.542 221.125 C 182.240 221.100,178.396 221.080,169.000 221.080 C 159.604 221.080,155.760 221.100,160.458 221.125 M255.220 222.500 C 255.220 223.096,255.250 223.340,255.287 223.042 C 255.324 222.744,255.324 222.256,255.287 221.958 C 255.250 221.660,255.220 221.904,255.220 222.500 M129.083 221.923 C 128.667 222.123,128.653 222.146,129.000 222.062 C 129.472 221.946,130.003 221.676,129.750 221.679 C 129.658 221.681,129.358 221.790,129.083 221.923 M103.347 222.069 C 103.454 222.175,106.109 222.835,106.361 222.818 C 106.483 222.810,105.908 222.624,105.083 222.406 C 103.590 222.010,103.215 221.937,103.347 222.069 M127.167 222.511 C 126.575 222.712,126.455 222.787,126.827 222.724 C 127.504 222.607,128.698 222.188,128.333 222.195 C 128.196 222.197,127.671 222.340,127.167 222.511 M292.917 222.333 C 292.707 222.424,292.676 222.477,292.833 222.477 C 292.971 222.477,293.233 222.412,293.417 222.333 C 293.627 222.243,293.658 222.190,293.500 222.190 C 293.362 222.190,293.100 222.255,292.917 222.333 M291.333 222.750 C 290.921 222.870,290.733 222.969,290.917 222.971 C 291.100 222.973,291.550 222.876,291.917 222.755 C 292.780 222.470,292.312 222.466,291.333 222.750 M272.333 222.833 C 272.563 222.907,272.900 222.967,273.083 222.967 C 273.347 222.967,273.330 222.939,273.000 222.833 C 272.771 222.760,272.433 222.700,272.250 222.700 C 271.986 222.700,272.003 222.728,272.333 222.833 M255.385 224.583 C 255.386 225.133,255.417 225.338,255.454 225.039 C 255.491 224.739,255.490 224.289,255.452 224.039 C 255.414 223.788,255.384 224.033,255.385 224.583 M114.625 223.955 C 115.015 223.990,115.652 223.990,116.042 223.955 C 116.431 223.920,116.112 223.892,115.333 223.892 C 114.554 223.892,114.235 223.920,114.625 223.955 M118.795 223.954 C 119.094 223.991,119.544 223.990,119.795 223.952 C 120.045 223.914,119.800 223.884,119.250 223.885 C 118.700 223.886,118.495 223.917,118.795 223.954 M279.628 223.954 C 279.928 223.991,280.378 223.990,280.628 223.952 C 280.878 223.914,280.633 223.884,280.083 223.885 C 279.533 223.886,279.328 223.917,279.628 223.954 M282.875 223.955 C 283.219 223.991,283.781 223.991,284.125 223.955 C 284.469 223.919,284.188 223.889,283.500 223.889 C 282.813 223.889,282.531 223.919,282.875 223.955 M255.552 226.583 C 255.553 227.133,255.584 227.338,255.621 227.039 C 255.658 226.739,255.657 226.289,255.619 226.039 C 255.581 225.788,255.551 226.033,255.552 226.583 M255.717 228.667 C 255.717 229.171,255.748 229.377,255.786 229.125 C 255.824 228.873,255.824 228.460,255.786 228.208 C 255.748 227.956,255.717 228.162,255.717 228.667 M255.874 246.874 L 255.833 263.665 234.958 263.708 L 214.083 263.751 234.964 263.792 C 251.545 263.825,255.860 263.790,255.923 263.625 C 255.967 263.510,255.983 255.917,255.959 246.750 L 255.915 230.083 255.874 246.874 " stroke="none" fill="#8c9ca4" fill-rule="evenodd"></path></g></svg>